<svg width="30" height="30" viewBox="0 0 30 30" fill="none" xmlns="http://www.w3.org/2000/svg">
<path fill-rule="evenodd" clip-rule="evenodd" d="M15.0003 14.8231L3.00476 8.82606C3.04917 8.06173 3.38412 7.34329 3.94103 6.8179C4.49793 6.29251 5.23464 5.99992 6.00026 6.00006H24.0003C24.7659 5.99992 25.5026 6.29251 26.0595 6.8179C26.6164 7.34329 26.9514 8.06173 26.9958 8.82606L15.0003 14.8231ZM14.9999 18.177L26.9999 12.177V21C26.9999 21.7956 26.6838 22.5587 26.1212 23.1213C25.5586 23.6839 24.7955 24 23.9999 24H5.99988C5.20423 24 4.44117 23.6839 3.87856 23.1213C3.31595 22.5587 2.99988 21.7956 2.99988 21V12.177L14.9999 18.177Z" fill="white"/>
</svg>
